<svg width="30" height="27" viewBox="0 0 30 27" fill="none" xmlns="http://www.w3.org/2000/svg">
<path d="M13.75 4.5H5C4.33696 4.5 3.70107 4.73705 3.23223 5.15901C2.76339 5.58097 2.5 6.15326 2.5 6.75V22.5C2.5 23.0967 2.76339 23.669 3.23223 24.091C3.70107 24.5129 4.33696 24.75 5 24.75H22.5C23.163 24.75 23.7989 24.5129 24.2678 24.091C24.7366 23.669 25 23.0967 25 22.5V14.625" stroke="#AE03FF" stroke-width="2" stroke-linecap="round" stroke-linejoin="round"/>
<path d="M23.125 2.81251C23.6223 2.36496 24.2967 2.11353 25 2.11353C25.7033 2.11353 26.3777 2.36496 26.875 2.81251C27.3723 3.26006 27.6517 3.86708 27.6517 4.50001C27.6517 5.13295 27.3723 5.73996 26.875 6.18751L15 16.875L10 18L11.25 13.5L23.125 2.81251Z" stroke="#AE03FF" stroke-width="2" stroke-linecap="round" stroke-linejoin="round"/>
</svg>
