<svg width="39" height="35" viewBox="0 0 39 35" fill="none" xmlns="http://www.w3.org/2000/svg">
<g clip-path="url(#clip0_5_35)">
<path d="M19.5 27.3438C14.3021 27.3438 9.3832 25.3673 5.64651 21.7788C5.18704 21.338 5.21386 20.6456 5.70501 20.2333C6.19739 19.8209 6.96764 19.845 7.42832 20.2858C10.6982 23.427 14.9846 25.1562 19.5 25.1562C25.305 25.1562 30.6504 22.307 33.93 17.5C30.6516 12.693 25.305 9.84375 19.5 9.84375C13.4819 9.84375 7.95604 12.9073 4.71661 18.0392C4.38511 18.5653 3.63923 18.7513 3.05545 18.4516C2.46923 18.1541 2.26448 17.4869 2.59598 16.9608C6.27295 11.1344 12.5934 7.65625 19.5 7.65625C26.4079 7.65625 32.7271 11.1344 36.4041 16.9608C36.615 17.2955 36.615 17.7045 36.4041 18.0381C32.7271 23.8645 26.4079 27.3438 19.5 27.3438Z" fill="#AE03FF"/>
<path d="M19.5 22.9688C16.1399 22.9688 13.4062 20.5155 13.4062 17.5C13.4062 14.4845 16.1399 12.0312 19.5 12.0312C22.8601 12.0312 25.5938 14.4845 25.5938 17.5C25.5938 20.5155 22.8601 22.9688 19.5 22.9688ZM19.5 14.2188C17.4842 14.2188 15.8438 15.6909 15.8438 17.5C15.8438 19.3091 17.4842 20.7812 19.5 20.7812C21.5158 20.7812 23.1562 19.3091 23.1562 17.5C23.1562 15.6909 21.5158 14.2188 19.5 14.2188Z" fill="#AE03FF"/>
</g>
<defs>
<clipPath id="clip0_5_35">
<rect width="39" height="35" fill="white"/>
</clipPath>
</defs>
</svg>
